<svg enable-background="new 0 0 512 512" viewBox="0 0 512 512" xmlns="http://www.w3.org/2000/svg"><g fill="#fff"><path d="m510.371 226.513c-1.088-2.603-2.645-4.971-4.629-6.955l-63.979-63.979c-8.341-8.32-21.824-8.32-30.165 0-8.341 8.341-8.341 21.845 0 30.165l27.584 27.584h-119.169c-11.797 0-21.333 9.557-21.333 21.333s9.536 21.333 21.333 21.333h119.168l-27.584 27.584c-8.341 8.341-8.341 21.845 0 30.165 4.16 4.181 9.621 6.251 15.083 6.251s10.923-2.069 15.083-6.251l63.979-63.979c1.984-1.963 3.541-4.331 4.629-6.955 2.154-5.203 2.154-11.091 0-16.296z"/><path d="m362.68 298.667c-11.797 0-21.333 9.557-21.333 21.333v106.667h-85.333v-341.334c0-9.408-6.187-17.728-15.211-20.437l-74.091-22.229h174.635v106.667c0 11.776 9.536 21.333 21.333 21.333s21.333-9.557 21.333-21.333v-128c0-11.777-9.536-21.334-21.333-21.334h-341.333c-.768 0-1.451.32-2.197.405-1.003.107-1.92.277-2.88.512-2.24.576-4.267 1.451-6.165 2.645-.469.299-1.045.32-1.493.661-.172.129-.236.364-.407.492-2.325 1.834-4.266 4.074-5.674 6.741-.299.576-.363 1.195-.597 1.792-.683 1.621-1.429 3.2-1.685 4.992-.107.64.085 1.237.064 1.856-.021.427-.299.811-.299 1.237v426.667c0 10.176 7.189 18.923 17.152 20.907l213.333 42.667c1.387.299 2.795.427 4.181.427 4.885 0 9.685-1.685 13.525-4.843 4.928-4.053 7.808-10.091 7.808-16.491v-21.333h106.667c11.797 0 21.333-9.557 21.333-21.333v-128.001c0-11.776-9.536-21.333-21.333-21.333z"/></g></svg>