<svg enable-background="new 0 0 612 612" viewBox="0 0 612 612" xmlns="http://www.w3.org/2000/svg"><g fill="#fff"><path d="m609.608 315.426c3.19-5.874 3.19-12.979 0-18.853-58.464-107.643-172.5-180.72-303.607-180.72s-245.144 73.078-303.608 180.72c-3.19 5.874-3.19 12.979 0 18.853 58.465 107.643 172.499 180.721 303.607 180.721s245.143-73.078 303.608-180.721zm-303.608 136.429c-80.554 0-145.855-65.302-145.855-145.855s65.301-145.856 145.855-145.856 145.856 65.302 145.856 145.856-65.302 145.855-145.856 145.855z"/><path d="m306 231.67c-6.136 0-12.095.749-17.798 2.15 5.841 6.76 9.383 15.563 9.383 25.198 0 21.3-17.267 38.568-38.568 38.568-9.635 0-18.438-3.541-25.198-9.383-1.401 5.703-2.15 11.662-2.15 17.798 0 41.052 33.279 74.33 74.33 74.33s74.33-33.279 74.33-74.33-33.277-74.331-74.329-74.331z"/></g></svg>